<svg width="100%" viewBox="0 0 680 520" role="img" xmlns="http://www.w3.org/2000/svg">
<title>KaaS on OpenStack Architecture</title>
<style>
.t{font-family:sans-serif;font-size:14px;fill:#1a1a1a}
.ts{font-family:sans-serif;font-size:12px;fill:#555}
.th{font-family:sans-serif;font-size:14px;font-weight:500;fill:#1a1a1a}
</style>
<rect x="20" y="20" width="640" height="480" rx="16" fill="none" stroke="#888" stroke-width="1" stroke-dasharray="6 4"/>
<text class="ts" x="36" y="42">OpenStack (IaaS provider)</text>
<rect x="40" y="60" width="240" height="200" rx="12" fill="#EEEDFE" stroke="#534AB7" stroke-width="0.5"/>
<text class="th" x="160" y="88" text-anchor="middle" fill="#3C3489">Management cluster</text>
<text class="ts" x="160" y="106" text-anchor="middle">kaas-mgmt VM</text>
<rect x="60" y="118" width="90" height="44" rx="8" fill="#E1F5EE" stroke="#0F6E56" stroke-width="0.5"/>
<text class="th" x="105" y="138" text-anchor="middle" fill="#085041">CAPI</text>
<text class="ts" x="105" y="154" text-anchor="middle">v1.10.10</text>
<rect x="168" y="118" width="90" height="44" rx="8" fill="#E1F5EE" stroke="#0F6E56" stroke-width="0.5"/>
<text class="th" x="213" y="138" text-anchor="middle" fill="#085041">CAPO</text>
<text class="ts" x="213" y="154" text-anchor="middle">v0.10.4</text>
<rect x="60" y="178" width="90" height="44" rx="8" fill="#F1EFE8" stroke="#5F5E5A" stroke-width="0.5"/>
<text class="th" x="105" y="198" text-anchor="middle" fill="#2C2C2A">kubeadm</text>
<text class="ts" x="105" y="214" text-anchor="middle">v1.32.13</text>
<rect x="168" y="178" width="90" height="44" rx="8" fill="#F1EFE8" stroke="#5F5E5A" stroke-width="0.5"/>
<text class="th" x="213" y="198" text-anchor="middle" fill="#2C2C2A">Helm</text>
<text class="ts" x="213" y="214" text-anchor="middle">v3.21</text>
<defs><marker id="arrow" viewBox="0 0 10 10" refX="8" refY="5" markerWidth="6" markerHeight="6" orient="auto-start-reverse"><path d="M2 1L8 5L2 9" fill="none" stroke="#888" stroke-width="1.5" stroke-linecap="round" stroke-linejoin="round"/></marker></defs>
<path d="M280 160 L380 160" fill="none" stroke="#888" stroke-width="1.5" marker-end="url(#arrow)" stroke-dasharray="5 3"/>
<text class="ts" x="330" y="152" text-anchor="middle">provisions</text>
<rect x="380" y="60" width="260" height="200" rx="12" fill="#E6F1FB" stroke="#185FA5" stroke-width="0.5"/>
<text class="th" x="510" y="88" text-anchor="middle" fill="#0C447C">Workload cluster</text>
<text class="ts" x="510" y="106" text-anchor="middle">3 nodes — v1.32.12</text>
<rect x="398" y="118" width="100" height="44" rx="8" fill="#F1EFE8" stroke="#5F5E5A" stroke-width="0.5"/>
<text class="th" x="448" y="138" text-anchor="middle" fill="#2C2C2A">Control plane</text>
<text class="ts" x="448" y="154" text-anchor="middle">10.10.10.49</text>
<rect x="516" y="118" width="100" height="44" rx="8" fill="#F1EFE8" stroke="#5F5E5A" stroke-width="0.5"/>
<text class="th" x="566" y="138" text-anchor="middle" fill="#2C2C2A">Workers x2</text>
<text class="ts" x="566" y="154" text-anchor="middle">m1.large</text>
<rect x="398" y="178" width="100" height="44" rx="8" fill="#EAF3DE" stroke="#3B6D11" stroke-width="0.5"/>
<text class="th" x="448" y="198" text-anchor="middle" fill="#27500A">Calico</text>
<text class="ts" x="448" y="214" text-anchor="middle">CNI v3.28</text>
<rect x="516" y="178" width="100" height="44" rx="8" fill="#F1EFE8" stroke="#5F5E5A" stroke-width="0.5"/>
<text class="th" x="566" y="198" text-anchor="middle" fill="#2C2C2A">kube-proxy</text>
<text class="ts" x="566" y="214" text-anchor="middle">networking</text>
<rect x="40" y="300" width="240" height="180" rx="12" fill="#FAEEDA" stroke="#854F0B" stroke-width="0.5"/>
<text class="th" x="160" y="328" text-anchor="middle" fill="#633806">Monitoring stack</text>
<text class="ts" x="160" y="346" text-anchor="middle">deployed via Helm</text>
<rect x="60" y="358" width="90" height="44" rx="8" fill="#F1EFE8" stroke="#5F5E5A" stroke-width="0.5"/>
<text class="th" x="105" y="378" text-anchor="middle" fill="#2C2C2A">Prometheus</text>
<text class="ts" x="105" y="394" text-anchor="middle">metrics</text>
<rect x="168" y="358" width="90" height="44" rx="8" fill="#F1EFE8" stroke="#5F5E5A" stroke-width="0.5"/>
<text class="th" x="213" y="378" text-anchor="middle" fill="#2C2C2A">Grafana</text>
<text class="ts" x="213" y="394" text-anchor="middle">dashboards</text>
<rect x="60" y="418" width="198" height="44" rx="8" fill="#F1EFE8" stroke="#5F5E5A" stroke-width="0.5"/>
<text class="th" x="159" y="438" text-anchor="middle" fill="#2C2C2A">Alertmanager</text>
<text class="ts" x="159" y="454" text-anchor="middle">alerts</text>
<rect x="380" y="300" width="260" height="180" rx="12" fill="#FAECE7" stroke="#993C1D" stroke-width="0.5"/>
<text class="th" x="510" y="328" text-anchor="middle" fill="#712B13">GitOps</text>
<text class="ts" x="510" y="346" text-anchor="middle">continuous delivery</text>
<rect x="398" y="358" width="224" height="44" rx="8" fill="#F1EFE8" stroke="#5F5E5A" stroke-width="0.5"/>
<text class="th" x="510" y="378" text-anchor="middle" fill="#2C2C2A">ArgoCD</text>
<text class="ts" x="510" y="394" text-anchor="middle">stable</text>
<rect x="398" y="418" width="224" height="44" rx="8" fill="#F1EFE8" stroke="#5F5E5A" stroke-width="0.5"/>
<text class="th" x="510" y="438" text-anchor="middle" fill="#2C2C2A">Git repository</text>
<text class="ts" x="510" y="454" text-anchor="middle">github.com/Abderraoufzekkour</text>
<path d="M510 260 L510 290 L160 290 L160 299" fill="none" stroke="#888" stroke-width="1" marker-end="url(#arrow)"/>
<path d="M510 260 L510 298" fill="none" stroke="#888" stroke-width="1" marker-end="url(#arrow)"/>
<text class="ts" x="340" y="510" text-anchor="middle">test-network-02 — 10.10.10.0/24</text>
</svg>
